<svg xmlns="http://www.w3.org/2000/svg" width="256" height="256" viewBox="0 0 24 24"><path fill="currentColor" d="M12 3a9 9 0 0 0-9 9a8.96 8.96 0 0 0 1.773 5.365A5 5 0 0 1 9.5 14h5a5 5 0 0 1 4.727 3.365A8.96 8.96 0 0 0 21 12a9 9 0 0 0-9-9m5.5 16.125V19a3 3 0 0 0-3-3h-5a3 3 0 0 0-3 3v.125A8.96 8.96 0 0 0 12 21c2.072 0 3.979-.7 5.5-1.875M1 12C1 5.925 5.925 1 12 1s11 4.925 11 11a10.98 10.98 0 0 1-3.85 8.36A10.96 10.96 0 0 1 12 23a10.96 10.96 0 0 1-7.15-2.64A10.98 10.98 0 0 1 1 12m11-6a2.5 2.5 0 1 0 0 5a2.5 2.5 0 0 0 0-5M7.5 8.5a4.5 4.5 0 1 1 9 0a4.5 4.5 0 0 1-9 0"/></svg>