<svg xmlns="http://www.w3.org/2000/svg" width="256" height="256" viewBox="0 0 24 24"><g fill="none" fill-rule="evenodd"><path d="M24 0v24H0V0zM12.594 23.258l-.012.002l-.071.035l-.02.004l-.014-.004l-.071-.036q-.016-.004-.024.006l-.004.01l-.017.428l.005.02l.01.013l.104.074l.015.004l.012-.004l.104-.074l.012-.016l.004-.017l-.017-.427q-.004-.016-.016-.018m.264-.113l-.014.002l-.184.093l-.01.01l-.003.011l.018.43l.005.012l.008.008l.201.092q.019.005.029-.008l.004-.014l-.034-.614q-.005-.018-.02-.022m-.715.002a.02.02 0 0 0-.027.006l-.006.014l-.034.614q.001.018.017.024l.015-.002l.201-.093l.01-.008l.003-.011l.018-.43l-.003-.012l-.01-.01z"/><path fill="currentColor" d="M3.241 14.318c-.386-2.681.705-5.233 2.421-7.239l-.048-.051a1 1 0 0 1 1.414-1.414l.05.048c2.007-1.716 4.559-2.807 7.24-2.42a1 1 0 0 1 .428 1.76c-.92.77-1.83 1.55-2.689 2.387a21 21 0 0 0-1.47 1.568l8.108 7.618a1 1 0 0 1 .022 1.436l-.707.707a1 1 0 0 1-1.436-.023l-7.617-8.108a22 22 0 0 0-1.568 1.47c-.865.888-1.668 1.83-2.465 2.778a1 1 0 0 1-1.683-.518Zm7.803-8.728l-.383.367q-.645.628-1.175 1.216c-.363.411-.723.826-1.033 1.28c-.448.298-.766.57-1.28 1.033a31 31 0 0 0-1.216 1.175l-.367.383c.482-1.248 1.222-2.341 2.167-3.287a9.5 9.5 0 0 1 3.287-2.167"/></g></svg>