<svg xmlns="http://www.w3.org/2000/svg" width="256" height="256" viewBox="0 0 24 24"><path fill="currentColor" d="M21.357 8.612a.933.933 0 1 0-.786-1.693L14.195 3.24a.932.932 0 1 0-1.863 0l-6.43 3.635a.932.932 0 0 0-.877 1.634v7.331l-1.234-.695l.235-.448H2l1.1 1.748l.243-.472l9.939 5.717l7.192-4.174c.157.12.35.2.563.2a.931.931 0 0 0 .326-1.815V8.619zM5.926 16.38V8.582l.109-.06l6.853 3.974v7.846zm7.32-4.719L6.463 7.693v-.067l6.316-3.562a.93.93 0 0 0 .973 0l6.291 3.593l-6.793 4.01zm.925.545l6.279-3.739v7.453zm-.375.834l6.248 3.69l-6.248 3.612z"/></svg>